<svg width="260" height="72" viewBox="0 0 260 72" fill="none" xmlns="http://www.w3.org/2000/svg" role="img" aria-labelledby="title desc">
  <title id="title">SEOSONA logo</title>
  <desc id="desc">SEOSONA Google Marketing Agency logo</desc>
  <rect x="2" y="2" width="68" height="68" rx="20" fill="url(#g1)"/>
  <path d="M22 43.5C26.2 48.2 33.1 50.3 39.4 48.6C45.8 46.8 50.2 41.8 49.4 36.8C48.7 32.2 44.9 29.8 37.7 28.9L32.4 28.2C28.7 27.7 26.8 26.4 26.8 24.1C26.8 21.4 29.7 19.5 34.1 19.5C38.4 19.5 42.2 21.1 45.2 24.1L50.9 17.8C46.6 13.5 40.9 11.4 34.4 11.4C24.4 11.4 17.3 16.9 17.3 24.7C17.3 32.1 22.1 36 31.5 37.2L36.7 37.9C39.2 38.2 40.1 39.1 40.1 40.5C40.1 42.6 37.4 44.1 33.5 44.1C29.2 44.1 24.9 42.2 21.5 38.7L15.8 45.2C17.5 47.1 19.6 48.7 22 49.9V43.5Z" fill="white"/>
  <text x="86" y="33" font-family="Arial, Helvetica, sans-serif" font-size="28" font-weight="800" letter-spacing="-0.8" fill="#0F172A">SEO<tspan fill="#155EEF">SONA</tspan></text>
  <text x="88" y="53" font-family="Arial, Helvetica, sans-serif" font-size="11" font-weight="700" letter-spacing="2.4" fill="#64748B">GOOGLE MARKETING</text>
  <defs>
    <linearGradient id="g1" x1="2" y1="2" x2="70" y2="70" gradientUnits="userSpaceOnUse">
      <stop stop-color="#155EEF"/>
      <stop offset="0.55" stop-color="#06B6D4"/>
      <stop offset="1" stop-color="#7C3AED"/>
    </linearGradient>
  </defs>
</svg>
